PathFileType	4	(X/Y/Z)	C:/Users/opensim2020/Desktop/walking_exp_matlab/subject01_walking06_straight_02.trc																																																																																																																															
DataRate	CameraRate	NumFrames	NumMarkers	Units	OrigDataRate	OrigDataStartFrame	OrigNumFrames																																																																																																																											
100	100	6	43	mm	100	1557	171																																																																																																																											
Frame#	Time	LFHD			RFHD			LBHD			RBHD			C7			T10			CLAV			STRN			RBAK			LSHO			LUPA			LELB			LFRM			LWRA			LWRB			LFIN			RSHO			RUPA			RELB			RFRM			RWRA			RWRB			RFIN			LASI			RASI			LPSI			RPSI			LTHI			LKNE			LTIB			LANK			LHEE			LTOE			RTHI			RKNE			RTIB			RANK			RHEE			RTOE			*39			*40			*41			*42		
		X1	Y1	Z1	X2	Y2	Z2	X3	Y3	Z3	X4	Y4	Z4	X5	Y5	Z5	X6	Y6	Z6	X7	Y7	Z7	X8	Y8	Z8	X9	Y9	Z9	X10	Y10	Z10	X11	Y11	Z11	X12	Y12	Z12	X13	Y13	Z13	X14	Y14	Z14	X15	Y15	Z15	X16	Y16	Z16	X17	Y17	Z17	X18	Y18	Z18	X19	Y19	Z19	X20	Y20	Z20	X21	Y21	Z21	X22	Y22	Z22	X23	Y23	Z23	X24	Y24	Z24	X25	Y25	Z25	X26	Y26	Z26	X27	Y27	Z27	X28	Y28	Z28	X29	Y29	Z29	X30	Y30	Z30	X31	Y31	Z31	X32	Y32	Z32	X33	Y33	Z33	X34	Y34	Z34	X35	Y35	Z35	X36	Y36	Z36	X37	Y37	Z37	X38	Y38	Z38	X39	Y39	Z39	X40	Y40	Z40	X41	Y41	Z41	X42	Y42	Z42	X43	Y43	Z43
																																																																																																																																		
43	0.42	-484.08267	1669.21069	1046.79187	-451.10272	1677.38098	1157.60193	-597.19611	1624.92786	1076.73071	-566.40277	1633.43225	1193.98315	-629.43158	1432.25598	1115.50049	-663.46002	1139.05957	1126.32007	-484.17218	1366.03345	1115.94666	-439.52301	1212.78003	1117.06116	-682.58765	1240.70337	1198.17114	-546.33636	1390.09912	954.1933	-576.23474	1202.94409	872.62939	-599.18451	1054.79321	877.38794	-571.4295	943.72906	857.11414	-512.22919	818.58685	887.43774	-561.45374	821.35974	852.37207	-524.75726	743.37628	856.46802	-546.19464	1398.40442	1267.323	-605.47638	1202.69812	1373.41711	-607.13208	1075.70313	1378.09534	-564.93005	960.72845	1407.76697	-465.45212	859.57202	1391.49463	-511.04834	851.99042	1426.96118	-462.0513	781.39465	1426.05457	-480.01312	936.45496	1028.07813	-498.66183	931.83447	1244.85425	-670.42871	945.60425	1063.51672	-681.22833	941.13293	1207.78821	-477.25732	606.92017	976.32166	-472.30832	473.23248	999.67334	-514.7229	286.48264	996.23755	-534.35779	72.66504	1059.08362	-577.20892	43.49216	1113.35339	-386.32288	37.72468	1052.03564	-535.01709	596.00977	1312.63135	-526.63269	438.55005	1302.16809	-679.23578	351.974	1298.87976	-838.50079	225.75125	1245.21362	-883.2486	239.29175	1183.16553	-814.30975	83.23637	1257.12317	-467.13934	1710.73083	1136.01038	-1973.15161	1023.45551	3101.91919	-2012.55347	1022.01001	3140.61401	NaN	NaN	NaN
44	0.43	-474.10712	1669.62415	1045.9104	-441.24603	1677.85168	1156.62549	-587.28894	1625.39709	1075.75171	-556.6167	1633.99634	1193.05188	-619.7691	1432.89893	1114.41211	-654.47162	1139.81665	1125.24268	-474.56357	1366.36841	1115.15759	-430.29041	1212.92932	1116.43323	-673.39313	1241.44043	1196.94934	-536.12671	1390.47424	953.37347	-563.61511	1203.15881	871.48206	-585.01947	1054.5387	875.935	-554.70349	944.0108	855.39771	-492.44974	820.44061	885.91425	-541.65778	821.9162	850.86395	-502.88019	745.17761	854.65533	-536.81268	1398.88037	1266.55945	-596.29474	1203.09338	1372.33704	-598.34039	1076.23474	1376.8999	-558.11511	960.83917	1406.63538	-460.77441	857.52649	1390.07617	-506.14188	850.97705	1425.97656	-458.81815	779.09259	1424.34631	-471.3992	936.53577	1027.08093	-489.37411	932.72516	1244.06604	-661.88342	945.73486	1063.1814	-672.22644	940.96082	1207.39478	-472.28235	606.51813	976.00818	-468.45212	472.60056	999.18231	-512.76575	286.27948	996.00049	-534.14685	72.63375	1059.09668	-577.11993	43.69281	1113.41223	-385.96835	36.99524	1051.79932	-519.6145	597.63544	1311.88159	-506.88342	441.06897	1301.79236	-659.31207	354.24466	1297.51624	-818.35321	227.98595	1243.93127	-863.60352	240.51268	1181.45911	-794.21191	85.43455	1258.7312	-457.22995	1711.13904	1135.17407	-1973.15735	1023.25696	3101.84473	-2012.58691	1022.06073	3140.53198	NaN	NaN	NaN
45	0.44	-464.17645	1670.02637	1045.14148	-431.5596	1678.07678	1155.50061	-577.42358	1625.95435	1074.90796	-546.841	1634.51807	1192.22498	-610.14038	1433.5094	1113.41235	-645.51379	1140.54602	1124.23792	-465.02502	1366.65088	1114.6062	-421.14917	1213.04932	1115.6875	-664.31232	1242.15588	1195.84644	-526.0976	1390.89685	952.71765	-551.56982	1203.50586	870.66644	-570.68427	1054.46155	874.16736	-537.73645	944.44446	853.74896	-472.58878	822.58252	884.41272	-521.86737	822.76575	849.26636	-480.69958	747.30811	852.91577	-527.44867	1399.27759	1265.7749	-587.26843	1203.43481	1371.22839	-589.7616	1076.78992	1375.58923	-551.32251	960.93512	1405.49109	-456.16376	855.61627	1388.79993	-501.4418	850.06854	1425.00598	-455.65033	776.90887	1422.8783	-462.91208	936.78363	1025.8927	-480.02927	933.71539	1243.15112	-653.35309	945.81683	1063.06128	-663.05957	941.19623	1207.31396	-467.0791	606.14691	975.52728	-464.68484	471.93716	998.83252	-510.89294	286.0986	995.79803	-533.95007	72.75929	1059.1322	-577.02075	43.74025	1113.57166	-385.83807	36.92936	1051.67456	-504.10214	599.38739	1311.13916	-487.45776	443.48825	1300.5509	-639.39667	356.24878	1296.10315	-798.14166	229.46255	1243.15381	-843.41559	240.56033	1180.22632	-771.95306	87.57435	1260.0708	-447.34161	1711.37683	1134.25513	-1973.1698	1023.47412	3101.90234	-2012.56152	1021.99219	3140.64453	NaN	NaN	NaN
46	0.45	-454.05695	1670.44531	1044.48889	-421.63065	1678.37097	1154.97119	-567.44672	1626.46838	1074.0448	-537.01294	1634.94177	1191.42615	-600.58405	1434.16943	1112.495	-636.53235	1141.24646	1123.38477	-455.5322	1366.87915	1113.97852	-412.073	1213.23547	1115.03833	-655.17004	1242.80383	1194.83484	-516.13623	1391.30103	951.99005	-539.72821	1203.93518	869.81854	-556.51935	1054.30688	872.28809	-520.58746	945.14856	852.00073	-452.57886	825.06531	882.83124	-502.21094	824.0163	847.91302	-458.51105	749.84747	851.09229	-518.08887	1399.79089	1265.09021	-578.50122	1203.79712	1370.15796	-581.34509	1077.30383	1374.20984	-544.58746	961.23322	1404.47961	-451.65021	853.81384	1387.59314	-496.72537	849.39221	1424.28882	-452.6702	775.01123	1421.65393	-454.77234	936.89441	1024.8468	-471.02667	934.48956	1241.75244	-644.87531	945.95575	1063.06543	-653.7702	941.81354	1207.40063	-461.90152	605.72839	975.16248	-461.05988	471.39206	998.3432	-509.06198	285.87393	995.7934	-533.77197	72.8287	1059.2561	-577.01068	44.07594	1113.57031	-385.7356	36.75558	1051.51196	-488.37622	601.08063	1310.4303	-468.1651	445.647	1299.125	-619.53943	357.94336	1294.71667	-777.32117	229.63968	1242.30847	-823.23212	239.3653	1179.4187	-747.87634	89.34319	1261.23389	-437.29886	1711.88342	1133.67676	-1973.10181	1023.31873	3101.87231	-2012.68347	1022.04108	3140.68604	NaN	NaN	NaN
47	0.46	-443.95694	1670.72961	1044.06384	-411.62946	1678.53467	1154.52368	-557.42804	1627.02209	1073.29309	-527.17401	1635.39331	1190.79065	-591.02557	1434.78589	1111.56506	-627.61615	1141.87756	1122.60303	-446.17859	1367.25171	1113.34473	-403.0202	1213.40088	1114.37549	-646.10925	1243.47266	1193.98035	-506.37646	1391.73328	951.323	-527.90509	1204.33118	869.11108	-542.20667	1054.47656	870.1853	-503.40201	946.0686	850.28186	-432.64655	827.7149	881.45142	-481.8876	825.48254	846.40808	-436.35349	752.76617	849.11035	-508.92111	1400.2373	1264.31738	-569.88983	1204.14783	1369.13525	-573.04803	1077.78259	1372.80115	-537.9928	961.39978	1403.35229	-447.16089	852.09338	1386.45898	-492.15897	848.74823	1423.45435	-449.73184	773.21564	1420.40662	-446.23218	937.17487	1023.53522	-461.48129	935.53571	1240.63879	-636.38898	946.12213	1063.13501	-644.29895	942.71173	1207.6731	-456.83493	605.3783	974.72955	-457.6875	470.84564	997.83978	-507.13559	285.75827	995.54358	-533.17102	72.7668	1059.47803	-576.86383	44.24461	1113.72314	-385.65527	36.61163	1051.32764	-472.53513	602.87036	1309.32605	-449.2605	448.20679	1298.54114	-599.80487	359.25336	1293.19812	-756.05304	228.71942	1241.51587	-802.81085	237.01553	1178.97144	-722.61572	89.42907	1261.38733	-427.23926	1711.96802	1133.25464	-1973.17871	1023.34448	3101.90161	-2012.52222	1022.02655	3140.62646	NaN	NaN	NaN
48	0.47	-433.78867	1670.95264	1043.59729	-401.59497	1678.61597	1154.14612	-547.44745	1627.60254	1072.70251	-517.34546	1635.75122	1190.25195	-581.57855	1435.31201	1110.75586	-618.60065	1142.44983	1121.93176	-436.84573	1367.54968	1112.77197	-393.96655	1213.57568	1113.64722	-637.14246	1244.08569	1193.17053	-496.73447	1392.20703	950.68402	-516.27075	1204.82617	868.31873	-527.69165	1054.56335	868.75641	-486.26447	947.19336	848.75574	-412.78537	830.74078	880.0498	-461.83072	827.23816	844.80591	-414.27115	756.11511	847.23566	-499.71066	1400.54211	1263.68677	-561.44476	1204.43616	1368.05286	-564.89734	1078.27161	1371.37756	-531.50751	961.59045	1402.14417	-442.80371	850.62671	1385.41504	-487.68466	848.24127	1422.7262	-446.93097	771.75409	1419.47473	-438.80746	937.18903	1022.3252	-452.02179	936.61383	1239.40869	-627.97729	946.38733	1063.43103	-634.70471	943.75305	1208.08325	-451.8718	604.9585	974.40271	-454.4389	470.43442	997.40753	-505.1279	285.72177	995.37793	-533.19824	73.01163	1059.60217	-576.85107	44.62207	1113.7417	-385.77234	36.5114	1051.1377	-456.52826	604.53809	1308.58411	-430.75168	450.54065	1296.86035	-580.68164	360.64102	1292.22131	-734.11914	226.60629	1240.87061	-781.98419	233.22772	1178.72717	-695.9541	88.84242	1260.8949	-417.0845	1712.13611	1132.92737	-1973.08606	1023.77789	3101.89355	-2012.55518	1022.03967	3140.54272	NaN	NaN	NaN
